<svg width="16" height="17" viewBox="0 0 16 17" fill="none" xmlns="http://www.w3.org/2000/svg">
<mask id="mask0_1113_3357" style="mask-type:alpha" maskUnits="userSpaceOnUse" x="0" y="0" width="16" height="17">
<path d="M0 0.54503V16.853H15.982V0.54303H0V0.54503Z" fill="white"/>
</mask>
<g mask="url(#mask0_1113_3357)">
<path fill-rule="evenodd" clip-rule="evenodd" d="M5.49 0.99106C3.48405 1.69036 1.82777 3.14086 0.870005 5.03706C0.542097 5.68565 0.303272 6.37555 0.160005 7.08806C-0.198616 8.8753 0.0498578 10.7311 0.866005 12.3611C1.39956 13.4174 2.15474 14.3462 3.08 15.0841C3.95436 15.7806 4.96307 16.2892 6.043 16.5781C7.40201 16.9421 8.848 16.9341 10.216 16.6221C11.4604 16.341 12.6109 15.743 13.556 14.8861C14.543 13.9791 15.248 12.7861 15.621 11.5021C16.029 10.1041 16.081 8.60906 15.827 7.17206H8.156V10.3531H12.6C12.5113 10.8611 12.3212 11.3461 12.0409 11.779C11.7607 12.212 11.3962 12.5841 10.969 12.8731C10.426 13.2324 9.81394 13.4742 9.172 13.5831C8.532 13.6931 7.865 13.7061 7.225 13.5791C6.57266 13.4453 5.95505 13.1781 5.411 12.7941C4.53982 12.1788 3.88616 11.3032 3.544 10.2931C3.19568 9.26407 3.19568 8.14905 3.544 7.12006C3.78926 6.39711 4.1939 5.73854 4.728 5.19306C5.38981 4.51229 6.23737 4.04138 7.165 3.83906C7.95853 3.67099 8.78149 3.70399 9.559 3.93506C10.2178 4.13737 10.8197 4.49193 11.316 4.97006L12.816 3.47006C13.079 3.20306 13.355 2.94506 13.609 2.66806C12.8483 1.95996 11.9561 1.40788 10.983 1.04306C9.2123 0.397375 7.27362 0.379019 5.491 0.99106" fill="white"/>
</g>
<mask id="mask1_1113_3357" style="mask-type:alpha" maskUnits="userSpaceOnUse" x="0" y="0" width="14" height="8">
<path d="M13.609 0.544006H0.869995V7.11401H13.61V0.544006H13.609Z" fill="white"/>
</mask>
<g mask="url(#mask1_1113_3357)">
<path fill-rule="evenodd" clip-rule="evenodd" d="M5.49099 0.991002C7.27351 0.379855 9.21144 0.396792 10.983 1.039C11.956 1.399 12.846 1.959 13.609 2.665C13.355 2.941 13.079 3.2 12.816 3.467L11.316 4.967C10.8186 4.49036 10.217 4.13602 9.559 3.932C8.78192 3.69843 7.95842 3.66506 7.16499 3.835C6.24499 4.033 5.39 4.515 4.728 5.19C4.19338 5.73391 3.78862 6.39164 3.544 7.114C2.654 6.423 1.764 5.734 0.869995 5.041C1.82636 3.14283 3.48296 1.69062 5.49 0.991002" fill="#EA4335"/>
</g>
<path fill-rule="evenodd" clip-rule="evenodd" d="M0.165007 7.08304C0.309007 6.37304 0.545007 5.68104 0.875007 5.03204C1.76501 5.72404 2.65501 6.41204 3.54901 7.10504C3.19822 8.13397 3.19822 9.25012 3.54901 10.279C2.65901 10.972 1.76901 11.664 0.879007 12.352C0.0558839 10.7258 -0.195631 8.86972 0.165007 7.08304Z" fill="#FBBC05"/>
<path fill-rule="evenodd" clip-rule="evenodd" d="M8.156 7.16705H15.827C16.0878 8.60732 16.0174 10.0881 15.621 11.4971C15.248 12.7821 14.543 13.9741 13.556 14.8821L10.966 12.8701C11.3931 12.5809 11.7575 12.2086 12.0376 11.7754C12.3176 11.3423 12.5075 10.8572 12.596 10.3491H8.151C8.156 9.28905 8.156 8.22705 8.156 7.16705Z" fill="#4285F4"/>
<path fill-rule="evenodd" clip-rule="evenodd" d="M0.869995 12.357C1.76 11.668 2.65 10.976 3.54 10.283C3.88332 11.2931 4.53668 12.169 5.407 12.786C5.95176 13.1694 6.56957 13.4366 7.222 13.571C7.862 13.702 8.524 13.685 9.168 13.575C9.81029 13.4663 10.4227 13.2245 10.966 12.865L13.556 14.877C12.623 15.741 11.452 16.328 10.216 16.613C8.84799 16.924 7.402 16.933 6.043 16.569C4.96236 16.282 3.9533 15.7732 3.08 15.075C2.15635 14.3386 1.40252 13.4115 0.869995 12.357Z" fill="#34A853"/>
</svg>
